<svg version="1.0" xmlns="http://www.w3.org/2000/svg" viewBox="0 0 180.000000 180.000000"
    preserveAspectRatio="xMidYMid meet">

    <g transform="translate(0.000000,180.000000) scale(0.100000,-0.100000)" fill="#000000" stroke="none">
        <path d="M21 1774 c-21 -27 -21 -32 -21 -880 l0 -853 26 -20 c27 -21 32 -21
880 -21 l853 0 20 26 c21 27 21 32 21 880 l0 853 -26 20 c-27 21 -32 21 -880
21 l-853 0 -20 -26z m983 -496 c101 -222 158 -315 214 -350 31 -19 33 -22 15
-29 -54 -20 -130 -135 -219 -334 l-26 -60 -30 63 -30 63 22 52 c70 162 90 195
127 210 l36 14 -39 19 c-36 18 -43 30 -136 235 l-98 216 27 62 c14 34 30 58
34 54 5 -5 51 -101 103 -215z m-165 -27 c11 -27 21 -59 21 -70 0 -10 -24 -71
-54 -134 -48 -101 -57 -116 -87 -126 l-34 -12 36 -15 c34 -14 41 -26 136 -237
l101 -221 -30 -59 c-16 -33 -31 -57 -33 -55 -2 2 -47 98 -100 213 -53 116
-110 231 -126 257 -29 45 -82 99 -111 112 -11 5 -10 7 1 12 8 4 34 25 58 47
34 31 61 75 116 189 40 81 75 148 78 148 4 0 16 -22 28 -49z m97 -267 l34 -75
-34 -75 c-19 -41 -37 -74 -39 -74 -2 0 -19 33 -36 74 l-32 73 32 77 c18 42 35
76 37 76 2 0 19 -34 38 -76z" />
    </g>
</svg>