<?xml version="1.0" encoding="UTF-8"?>
<svg version="1.1" xmlns="http://www.w3.org/2000/svg">
    <path
        d="M0 0 C1.40765625 0.00580078 1.40765625 0.00580078 2.84375 0.01171875 C5.52087334 0.3148636 7.19965635 0.95073996 9.5 2.3125 C10.49 1.6525 11.48 0.9925 12.5 0.3125 C15.09375 0.01171875 15.09375 0.01171875 18 0 C19.43859375 -0.02513672 19.43859375 -0.02513672 20.90625 -0.05078125 C23.5 0.3125 23.5 0.3125 25.3046875 1.625 C27.43239804 4.62882664 27.10096253 6.76682107 26.5 10.3125 C23.47276819 14.0262352 20.23308748 16.41195681 15.5 17.3125 C15.5 17.9725 15.5 18.6325 15.5 19.3125 C21.39633355 20.37872153 24.36347247 20.65124289 29.5 17.3125 C36.27505223 16.30059803 42.97077825 16.12961343 49.8125 16.125 C50.78767578 16.11275391 51.76285156 16.10050781 52.76757812 16.08789062 C54.17620117 16.08499023 54.17620117 16.08499023 55.61328125 16.08203125 C56.45673096 16.07792236 57.30018066 16.07381348 58.16918945 16.06958008 C60.69235254 16.33254722 62.32149444 17.04544526 64.5 18.3125 C64.5 18.9725 64.5 19.6325 64.5 20.3125 C61.55587973 21.78456013 58.53714085 21.55057192 55.3046875 21.62890625 C54.24352219 21.6600779 54.24352219 21.6600779 53.16091919 21.69187927 C50.89904575 21.75731078 48.63705538 21.81622974 46.375 21.875 C44.84243578 21.91819133 43.30988343 21.96180582 41.77734375 22.00585938 C38.01834927 22.11298555 34.25923708 22.2142709 30.5 22.3125 C38.89572865 24.5671184 46.83855619 26.55669013 55.55859375 27.03125 C58.89528412 27.35029609 61.9978746 28.06850277 65.25 28.875 C70.1937702 30.10053148 74.42506401 30.61102565 79.5 30.3125 C79.73074219 29.78140625 79.96148437 29.2503125 80.19921875 28.703125 C82.71533508 23.25319714 85.14738952 19.99796538 90.64453125 17.234375 C98.82912111 14.59201767 109.94040198 15.08319769 117.640625 18.94921875 C121.6324125 21.87597051 124.19373028 23.84305697 125.234375 28.8359375 C125.28176175 40.51677066 125.28176175 40.51677066 121.3125 44.625 C115.70634553 49.27847463 110.19925901 49.67658676 103.1875 49.6875 C102.37087891 49.71199219 101.55425781 49.73648438 100.71289062 49.76171875 C94.25463616 49.79259487 88.76733442 48.40808925 83.97192383 43.86474609 C82.14179235 41.75563319 80.67187159 39.84764562 79.8125 37.171875 C78.55430615 34.93096177 78.55430615 34.93096177 75.2421875 34.703125 C73.96601563 34.65671875 72.68984375 34.6103125 71.375 34.5625 C69.45300781 34.47742187 69.45300781 34.47742187 67.4921875 34.390625 C66.01105469 34.35195312 66.01105469 34.35195312 64.5 34.3125 C64.54640625 34.98796875 64.5928125 35.6634375 64.640625 36.359375 C64.93819609 43.71363201 64.93819609 43.71363201 62.625 46.875 C58.66448904 49.55416918 55.52401276 49.44292918 50.8671875 49.41015625 C50.11535187 49.4087413 49.36351624 49.40732635 48.58889771 49.40586853 C46.1842249 49.40026465 43.77964473 49.38771157 41.375 49.375 C39.74609509 49.3699855 38.11718873 49.3654225 36.48828125 49.36132812 C32.49215173 49.35029397 28.49609158 49.33302679 24.5 49.3125 C24.5 47.9925 24.5 46.6725 24.5 45.3125 C35.39 45.3125 46.28 45.3125 57.5 45.3125 C57.5 41.3525 57.5 37.3925 57.5 33.3125 C55.68678425 31.49928425 52.86024243 32.13911209 50.41796875 32.1015625 C49.17595703 32.07320312 47.93394531 32.04484375 46.65429688 32.015625 C44.02162273 31.96377519 41.38878936 31.91943547 38.75585938 31.8828125 C36.88704102 31.83640625 36.88704102 31.83640625 34.98046875 31.7890625 C33.83473389 31.76924316 32.68899902 31.74942383 31.50854492 31.72900391 C28.21865569 31.27355061 26.8296745 30.64251766 24.5 28.3125 C24.17 27.3225 23.84 26.3325 23.5 25.3125 C17.03464954 22.26262486 10.62130669 20.35142107 3.6953125 22.63671875 C0.67538134 23.56634169 -2.37204843 23.90925805 -5.5 24.3125 C-5.4685791 25.18986816 -5.4685791 25.18986816 -5.43652344 26.08496094 C-5.35319885 28.74396465 -5.30129103 31.40269355 -5.25 34.0625 C-5.21648437 34.98289063 -5.18296875 35.90328125 -5.1484375 36.8515625 C-5.04921673 43.69779554 -5.04921673 43.69779554 -7.390625 46.890625 C-12.48620617 50.32542416 -17.76359217 49.57222373 -23.76635742 49.60766602 C-25.79480029 49.62485006 -27.82159994 49.66873375 -29.84960938 49.71289062 C-31.13287109 49.72126953 -32.41613281 49.72964844 -33.73828125 49.73828125 C-34.91430908 49.75286377 -36.09033691 49.76744629 -37.30200195 49.7824707 C-41.15336563 49.21648284 -42.80343985 48.07808259 -45.5 45.3125 C-46.16345401 41.21500805 -45.72706425 37.49048215 -45.5 33.3125 C-53.42 34.3025 -53.42 34.3025 -61.5 35.3125 C-61.83 38.2825 -62.16 41.2525 -62.5 44.3125 C-66.91225737 45.78325246 -69.98281619 46.68134358 -74.5 45.3125 C-74.83 46.6325 -75.16 47.9525 -75.5 49.3125 C-82.76 49.3125 -90.02 49.3125 -97.5 49.3125 C-97.83 47.9925 -98.16 46.6725 -98.5 45.3125 C-99.20125 45.51875 -99.9025 45.725 -100.625 45.9375 C-104.10538807 46.39146366 -106.23764923 45.49634474 -109.5 44.3125 C-109.58681476 40.68765001 -109.64032721 37.06306557 -109.6875 33.4375 C-109.71263672 32.40496094 -109.73777344 31.37242188 -109.76367188 30.30859375 C-109.77333984 29.32246094 -109.78300781 28.33632813 -109.79296875 27.3203125 C-109.81653442 25.95350342 -109.81653442 25.95350342 -109.84057617 24.55908203 C-109.72818604 23.81770996 -109.6157959 23.07633789 -109.5 22.3125 C-106.46474514 20.28899676 -105.30573798 19.99125982 -101.8125 19.6875 C-101.00425781 19.61273437 -100.19601563 19.53796875 -99.36328125 19.4609375 C-98.44095703 19.38746094 -98.44095703 19.38746094 -97.5 19.3125 C-98.82 18.6525 -100.14 17.9925 -101.5 17.3125 C-101.5 16.3225 -101.5 15.3325 -101.5 14.3125 C-97.73514452 14.67105766 -95.65696507 15.20458651 -92.5 17.375 C-88.96459403 19.65828302 -87.62305086 20.05464916 -83.5 19.3125 C-81.40183393 18.0792584 -79.41143598 16.73219042 -77.40234375 15.359375 C-75.5 14.3125 -75.5 14.3125 -72.5 14.5 C-71.84 14.768125 -71.18 15.03625 -70.5 15.3125 C-72.5 18.3125 -72.5 18.3125 -75.5 19.3125 C-74.81292969 19.36148437 -74.12585938 19.41046875 -73.41796875 19.4609375 C-72.51691406 19.53570313 -71.61585937 19.61046875 -70.6875 19.6875 C-69.79417969 19.75710937 -68.90085938 19.82671875 -67.98046875 19.8984375 C-65.5 20.3125 -65.5 20.3125 -62.5 22.3125 C-62.20703125 24.4765625 -62.20703125 24.4765625 -62.3125 26.9375 C-62.35310547 28.16339844 -62.35310547 28.16339844 -62.39453125 29.4140625 C-62.42933594 30.04054688 -62.46414062 30.66703125 -62.5 31.3125 C-59.01987918 30.84009949 -55.54110146 30.3584514 -52.0625 29.875 C-51.06927734 29.74029297 -50.07605469 29.60558594 -49.05273438 29.46679688 C-47.63637695 29.26860352 -47.63637695 29.26860352 -46.19140625 29.06640625 C-45.31685791 28.94595947 -44.44230957 28.8255127 -43.54125977 28.70141602 C-41.51335495 28.51327798 -41.51335495 28.51327798 -40.5 27.3125 C-39.00273977 27.17443297 -37.50152805 27.07914681 -36 27 C-27.94882607 26.36186204 -20.32418482 24.25289784 -12.5 22.3125 C-23.06 21.9825 -33.62 21.6525 -44.5 21.3125 C-44.995 19.3325 -44.995 19.3325 -45.5 17.3125 C-41.32935834 15.22717917 -35.93124003 16.08561338 -31.34350586 16.07226562 C-29.33760641 16.06262072 -27.33184801 16.03144617 -25.32617188 16 C-13.32859588 15.95154942 -13.32859588 15.95154942 -7.5 19.3125 C-7.5 19.9725 -7.5 20.6325 -7.5 21.3125 C-4.2 20.6525 -0.9 19.9925 2.5 19.3125 C2.5 18.6525 2.5 17.9925 2.5 17.3125 C1.613125 17.065 0.72625 16.8175 -0.1875 16.5625 C-4.1798152 15.05596596 -7.54062332 13.23125337 -9.5 9.3125 C-9.8125 6.375 -9.8125 6.375 -9.5 3.3125 C-6.48144279 0.30097905 -4.18173711 -0.07467388 0 0 Z M-3.5 3.3125 C-4.73836166 4.35592781 -4.73836166 4.35592781 -4.875 6.625 C-4.75057549 9.48876807 -4.75057549 9.48876807 -2.375 11.4375 C4.05407468 15.66360341 4.05407468 15.66360341 11.5 16.3125 C14.19215843 15.07313175 14.19215843 15.07313175 16.75 13.375 C17.62140625 12.82972656 18.4928125 12.28445313 19.390625 11.72265625 C21.39692222 10.48053108 21.39692222 10.48053108 22.5 9.3125 C22.66666667 6.8125 22.66666667 6.8125 22.5 4.3125 C22.17 3.9825 21.84 3.6525 21.5 3.3125 C19.4257003 3.33821704 19.4257003 3.33821704 17.0625 3.625 C16.25941406 3.70363281 15.45632812 3.78226562 14.62890625 3.86328125 C12.29517085 4.15340883 12.29517085 4.15340883 10.5 6.3125 C10.5 7.6325 10.5 8.9525 10.5 10.3125 C9.18 10.3125 7.86 10.3125 6.5 10.3125 C6.17 8.3325 5.84 6.3525 5.5 4.3125 C4.02168779 4.11837819 2.54230684 3.93237869 1.0625 3.75 C0.23878906 3.64558594 -0.58492188 3.54117187 -1.43359375 3.43359375 C-2.11550781 3.39363281 -2.79742187 3.35367187 -3.5 3.3125 Z M85.5 26.3125 C83.64235643 30.02778715 84.06506226 34.2573452 84.5 38.3125 C86.40818231 42.21182906 88.64267047 43.59359707 92.5625 45.125 C99.99690963 47.28061136 108.33062525 47.38508918 115.5 44.3125 C119.84518615 39.73861984 120.80936119 36.69820232 120.7109375 30.56640625 C120.41443864 27.39826101 119.60386362 25.69687877 117.5 23.3125 C106.86152712 16.83690781 94.48268108 17.75756563 85.5 26.3125 Z M-105.5 24.3125 C-105.5 30.2525 -105.5 36.1925 -105.5 42.3125 C-92.63 42.3125 -79.76 42.3125 -66.5 42.3125 C-66.5 36.3725 -66.5 30.4325 -66.5 24.3125 C-79.37 24.3125 -92.24 24.3125 -105.5 24.3125 Z M-40.5 32.3125 C-40.52686553 34.29159398 -40.54633375 36.27078971 -40.5625 38.25 C-40.57410156 39.35214844 -40.58570312 40.45429687 -40.59765625 41.58984375 C-40.81262571 44.22697634 -40.81262571 44.22697634 -39.5 45.3125 C-35.02731037 45.593989 -30.54299265 45.54431434 -26.0625 45.5625 C-24.16274414 45.5934375 -24.16274414 45.5934375 -22.22460938 45.625 C-21.01740234 45.63015625 -19.81019531 45.6353125 -18.56640625 45.640625 C-17.45209229 45.6499707 -16.33777832 45.65931641 -15.18969727 45.66894531 C-14.30209717 45.55131836 -13.41449707 45.43369141 -12.5 45.3125 C-10.21937172 41.89155758 -10.28074993 40.63062778 -10.375 36.625 C-10.40207031 35.13419922 -10.40207031 35.13419922 -10.4296875 33.61328125 C-10.45289062 32.85402344 -10.47609375 32.09476563 -10.5 31.3125 C-14.45099928 31.2878015 -18.40196874 31.26964077 -22.35302734 31.25756836 C-24.35906551 31.25005964 -26.36508202 31.2373553 -28.37109375 31.22460938 C-29.62792969 31.22138672 -30.88476562 31.21816406 -32.1796875 31.21484375 C-33.34226074 31.20960693 -34.50483398 31.20437012 -35.70263672 31.19897461 C-38.45502192 31.11893717 -38.45502192 31.11893717 -40.5 32.3125 Z M-94.5 45.3125 C-94.5 45.6425 -94.5 45.9725 -94.5 46.3125 C-89.22 46.3125 -83.94 46.3125 -78.5 46.3125 C-78.5 45.9825 -78.5 45.6525 -78.5 45.3125 C-83.78 45.3125 -89.06 45.3125 -94.5 45.3125 Z "
        fill="#000000" transform="translate(113.5,-0.3125)" />
    <path
        d="M0 0 C4.82625 -0.0825 9.6525 -0.165 14.625 -0.25 C16.13658691 -0.28641602 17.64817383 -0.32283203 19.20556641 -0.36035156 C20.40874512 -0.3703418 21.61192383 -0.38033203 22.8515625 -0.390625 C24.68968506 -0.4220459 24.68968506 -0.4220459 26.56494141 -0.45410156 C31.60257833 0.2118547 34.71111201 2.46164982 37.9375 6.3125 C39.46058132 10.1649998 39.29502653 12.04676111 38 16 C35.07037768 19.82520635 31.98997557 22.5229704 27.24609375 23.66015625 C24.81113787 23.9060764 22.44592374 24.03508497 20 24 C20.825 24.78375 21.65 25.5675 22.5 26.375 C25 29 25 29 25 31 C25.66 31 26.32 31 27 31 C28.65625 32.609375 28.65625 32.609375 30.5 34.75 C31.1084375 35.44609375 31.716875 36.1421875 32.34375 36.859375 C34 39 34 39 35.03125 41.203125 C35.9273424 43.35632919 35.9273424 43.35632919 39 44 C39 44.33 39 44.66 39 45 C28.75087814 46.06025399 28.75087814 46.06025399 24.890625 43.72265625 C23.09691695 41.90837815 21.54940127 40.02643368 20 38 C18.77764739 36.59819563 17.54846921 35.20231348 16.3125 33.8125 C15.77238281 33.17957031 15.23226563 32.54664063 14.67578125 31.89453125 C12.86861166 29.85146074 10.92873003 27.92873003 9 26 C8.67 32.27 8.34 38.54 8 45 C5.36 45 2.72 45 0 45 C0 30.15 0 15.3 0 0 Z M8 6 C8 9.3 8 12.6 8 16 C10.93804996 16.08086376 13.87388075 16.1404283 16.8125 16.1875 C17.64587891 16.21263672 18.47925781 16.23777344 19.33789062 16.26367188 C20.14033203 16.27333984 20.94277344 16.28300781 21.76953125 16.29296875 C22.50792236 16.3086792 23.24631348 16.32438965 24.00708008 16.34057617 C26.56974287 15.9026349 27.45887221 15.06086386 29 13 C28.99843776 10.40882687 28.99843776 10.40882687 28 8 C24.95318939 5.96879293 24.39881676 5.75340125 20.98828125 5.8046875 C20.23095703 5.81113281 19.47363281 5.81757812 18.69335938 5.82421875 C17.90767578 5.84097656 17.12199219 5.85773438 16.3125 5.875 C15.51521484 5.88402344 14.71792969 5.89304687 13.89648438 5.90234375 C11.930861 5.92588415 9.96539225 5.96175453 8 6 Z "
        fill="#000000" transform="translate(0,68)" />
    <path
        d="M0 0 C1.98 0 3.96 0 6 0 C6.66 1.32 7.32 2.64 8 4 C8.66 4 9.32 4 10 4 C10.66 2.68 11.32 1.36 12 0 C13.65 0 15.3 0 17 0 C17 6.27 17 12.54 17 19 C15.68 19 14.36 19 13 19 C12.67 16.36 12.34 13.72 12 11 C10.35 11.33 8.7 11.66 7 12 C6.67 14.31 6.34 16.62 6 19 C4.02 19 2.04 19 0 19 C0 12.73 0 6.46 0 0 Z "
        fill="#000000" transform="translate(138,81)" />
    <path
        d="M0 0 C2.248125 -0.04125 4.49625 -0.0825 6.8125 -0.125 C8.07707031 -0.14820312 9.34164062 -0.17140625 10.64453125 -0.1953125 C14 0 14 0 17 2 C17.1875 5.125 17.1875 5.125 17 8 C15.02 8.99 13.04 9.98 11 11 C12.2065625 12.1446875 12.2065625 12.1446875 13.4375 13.3125 C16 16 16 16 17 19 C15.02 19 13.04 19 11 19 C10.67 18.01 10.34 17.02 10 16 C9.34 16 8.68 16 8 16 C7.34 15.01 6.68 14.02 6 13 C5.67 14.98 5.34 16.96 5 19 C3.35 19 1.7 19 0 19 C0 12.73 0 6.46 0 0 Z M5 4 C5 4.99 5 5.98 5 7 C8.465 6.505 8.465 6.505 12 6 C12 5.34 12 4.68 12 4 C9.69 4 7.38 4 5 4 Z "
        fill="#000000" transform="translate(52,81)" />
    <path
        d="M0 0 C0.9590625 -0.00773437 1.918125 -0.01546875 2.90625 -0.0234375 C5.5 0.375 5.5 0.375 7.33203125 1.38671875 C9.21378798 4.59011064 8.81011145 7.96275361 8.6875 11.5625 C8.66719727 12.68688477 8.66719727 12.68688477 8.64648438 13.83398438 C8.61118539 15.68129767 8.55737917 17.52824066 8.5 19.375 C6.85 19.375 5.2 19.375 3.5 19.375 C3.17 17.065 2.84 14.755 2.5 12.375 C0.85 12.375 -0.8 12.375 -2.5 12.375 C-2.83 14.685 -3.16 16.995 -3.5 19.375 C-5.15 19.375 -6.8 19.375 -8.5 19.375 C-8.5809313 16.77021117 -8.64045434 14.16793347 -8.6875 11.5625 C-8.72520508 10.45551758 -8.72520508 10.45551758 -8.76367188 9.32617188 C-8.83667685 3.94813885 -8.83667685 3.94813885 -7.33203125 1.38671875 C-4.80483944 -0.00889464 -2.87618523 -0.02319504 0 0 Z M-3.5 4.375 C-3.5 5.695 -3.5 7.015 -3.5 8.375 C-1.19 8.375 1.12 8.375 3.5 8.375 C3.5 7.055 3.5 5.735 3.5 4.375 C1.19 4.375 -1.12 4.375 -3.5 4.375 Z "
        fill="#000000" transform="translate(214.5,80.625)" />
    <path
        d="M0 0 C1.65 0 3.3 0 5 0 C6.80078125 1.96875 6.80078125 1.96875 8.3125 4.5 C8.82425781 5.3353125 9.33601562 6.170625 9.86328125 7.03125 C10.23839844 7.6809375 10.61351562 8.330625 11 9 C11.33 6.03 11.66 3.06 12 0 C13.32 0 14.64 0 16 0 C16 6.27 16 12.54 16 19 C11 18 11 18 9.41796875 16.15234375 C8.27864583 14.1015625 7.13932292 12.05078125 6 10 C5.67 12.97 5.34 15.94 5 19 C3.35 19 1.7 19 0 19 C0 12.73 0 6.46 0 0 Z "
        fill="#000000" transform="translate(226,81)" />
    <path
        d="M0 0 C1.17949219 0.01804687 2.35898438 0.03609375 3.57421875 0.0546875 C4.92966797 0.08949219 4.92966797 0.08949219 6.3125 0.125 C6.3125 1.445 6.3125 2.765 6.3125 4.125 C2.6825 4.125 -0.9475 4.125 -4.6875 4.125 C-4.3575 5.115 -4.0275 6.105 -3.6875 7.125 C-0.7175 7.125 2.2525 7.125 5.3125 7.125 C5.6425 8.775 5.9725 10.425 6.3125 12.125 C2.6825 12.125 -0.9475 12.125 -4.6875 12.125 C-4.6875 13.115 -4.6875 14.105 -4.6875 15.125 C-1.0575 15.125 2.5725 15.125 6.3125 15.125 C6.3125 16.445 6.3125 17.765 6.3125 19.125 C4.20861431 19.17902274 2.10433286 19.21780256 0 19.25 C-1.17175781 19.27320312 -2.34351563 19.29640625 -3.55078125 19.3203125 C-6.6875 19.125 -6.6875 19.125 -9.6875 17.125 C-9.99145006 14.52652495 -10.1061308 12.21860893 -10.0625 9.625 C-10.07410156 8.93535156 -10.08570313 8.24570313 -10.09765625 7.53515625 C-10.0859375 5.53125 -10.0859375 5.53125 -9.6875 2.125 C-6.05554504 -0.29630331 -4.30400652 -0.08522785 0 0 Z "
        fill="#000000" transform="translate(168.6875,80.875)" />
    <path
        d="M0 0 C1.65 0 3.3 0 5 0 C5 4.95 5 9.9 5 15 C7.31 15 9.62 15 12 15 C12 10.05 12 5.1 12 0 C13.98 0 15.96 0 18 0 C18.10853983 2.22808159 18.18583307 4.45769932 18.25 6.6875 C18.29640625 7.92886719 18.3428125 9.17023438 18.390625 10.44921875 C17.93218744 14.61641619 17.09459007 16.2053957 14 19 C11.5625 19.59375 11.5625 19.59375 9 19.5 C8.154375 19.4896875 7.30875 19.479375 6.4375 19.46875 C3.36477628 18.87784159 2.05874091 18.39399459 0 16 C-0.29561076 13.12961948 -0.37943016 10.66245255 -0.25 7.8125 C-0.23195313 7.06291016 -0.21390625 6.31332031 -0.1953125 5.54101562 C-0.14824109 3.6934629 -0.07649766 1.84656841 0 0 Z "
        fill="#000000" transform="translate(118,81)" />
    <path
        d="M0 0 C1.98 0 3.96 0 6 0 C6.33 1.32 6.66 2.64 7 4 C7.53625 3.34 8.0725 2.68 8.625 2 C11 0 11 0 14.25 -0.25 C15.61125 -0.12625 15.61125 -0.12625 17 0 C17 0.66 17 1.32 17 2 C15.25 3.7265625 15.25 3.7265625 13 5.625 C12.2575 6.25664063 11.515 6.88828125 10.75 7.5390625 C9.88375 8.26222656 9.88375 8.26222656 9 9 C9.95421808 10.14926266 10.91352045 11.29430541 11.875 12.4375 C12.67550781 13.39462891 12.67550781 13.39462891 13.4921875 14.37109375 C14.9222757 16.10805004 14.9222757 16.10805004 17 17 C17 17.66 17 18.32 17 19 C14.25 19.25 14.25 19.25 11 19 C8.625 17 8.625 17 7 15 C6.67 16.32 6.34 17.64 6 19 C4.02 19 2.04 19 0 19 C0 12.73 0 6.46 0 0 Z "
        fill="#000000" transform="translate(187,81)" />
    <path
        d="M0 0 C1.75570312 0.04060547 1.75570312 0.04060547 3.546875 0.08203125 C4.43890625 0.11683594 5.3309375 0.15164062 6.25 0.1875 C6.25 1.5075 6.25 2.8275 6.25 4.1875 C0.805 4.6825 0.805 4.6825 -4.75 5.1875 C-4.42 5.8475 -4.09 6.5075 -3.75 7.1875 C-1.66388442 7.838039 -1.66388442 7.838039 0.75 8.25 C5.15606654 9.09356654 5.15606654 9.09356654 6.25 10.1875 C6.70875928 15.46323169 6.70875928 15.46323169 5.18359375 17.87109375 C2.21020864 19.89539836 -0.39803329 19.47241652 -3.9375 19.375 C-5.84595703 19.33439453 -5.84595703 19.33439453 -7.79296875 19.29296875 C-8.76878906 19.25816406 -9.74460937 19.22335938 -10.75 19.1875 C-10.75 17.8675 -10.75 16.5475 -10.75 15.1875 C-9.89535156 15.13851562 -9.04070312 15.08953125 -8.16015625 15.0390625 C-7.05542969 14.96429688 -5.95070313 14.88953125 -4.8125 14.8125 C-3.15927734 14.70808594 -3.15927734 14.70808594 -1.47265625 14.6015625 C-0.12494141 14.39660156 -0.12494141 14.39660156 1.25 14.1875 C1.58 13.5275 1.91 12.8675 2.25 12.1875 C0.4246875 12.31125 0.4246875 12.31125 -1.4375 12.4375 C-4.7098225 12.4316877 -5.77089146 12.17574856 -8.75 10.5 C-10.75 8.1875 -10.75 8.1875 -11.3125 5.625 C-10.75 3.1875 -10.75 3.1875 -9.13671875 1.546875 C-5.95227935 -0.26684826 -3.63872779 -0.10916183 0 0 Z "
        fill="#000000" transform="translate(108.75,80.8125)" />
    <path d="M0 0 C2.475 0.495 2.475 0.495 5 1 C5 9.25 5 17.5 5 26 C3.35 26.33 1.7 26.66 0 27 C0 18.09 0 9.18 0 0 Z "
        fill="#000000" transform="translate(120,22)" />
    <path
        d="M0 0 C5.61 0 11.22 0 17 0 C16.67 1.32 16.34 2.64 16 4 C14.02 4 12.04 4 10 4 C10 8.95 10 13.9 10 19 C8.68 19 7.36 19 6 19 C6 14.05 6 9.1 6 4 C4.02 4 2.04 4 0 4 C0 2.68 0 1.36 0 0 Z "
        fill="#000000" transform="translate(80,81)" />
    <path d="M0 0 C1.65 0 3.3 0 5 0 C5 6.27 5 12.54 5 19 C3.35 19 1.7 19 0 19 C0 12.73 0 6.46 0 0 Z " fill="#000000"
        transform="translate(179,81)" />
    <path d="M0 0 C1.65 0 3.3 0 5 0 C5 6.27 5 12.54 5 19 C3.35 19 1.7 19 0 19 C0 12.73 0 6.46 0 0 Z " fill="#000000"
        transform="translate(72,81)" />
    <path
        d="M0 0 C2.0625 0.4375 2.0625 0.4375 4 1 C4 2.98 4 4.96 4 7 C2.0625 7.5625 2.0625 7.5625 0 8 C-1 7 -1 7 -1.125 4 C-1 1 -1 1 0 0 Z "
        fill="#000000" transform="translate(33,27)" />
    <path d="M0 0 C1.32 0 2.64 0 4 0 C4 2.31 4 4.62 4 7 C2.68 7 1.36 7 0 7 C-1 6 -1 6 -1.125 3.5 C-1 1 -1 1 0 0 Z "
        fill="#000000" transform="translate(18,27)" />
    <path d="M0 0 C1.32 0.33 2.64 0.66 4 1 C4 2.98 4 4.96 4 7 C2.68 7 1.36 7 0 7 C0 4.69 0 2.38 0 0 Z " fill="#000000"
        transform="translate(221,26)" />
    <path
        d="M0 0 C0.99 0 1.98 0 3 0 C3 2.31 3 4.62 3 7 C1.68 7 0.36 7 -1 7 C-1.04254356 5.00045254 -1.04080783 2.99958364 -1 1 C-0.67 0.67 -0.34 0.34 0 0 Z "
        fill="#000000" transform="translate(208,26)" />
    <path d="" fill="#000000" transform="translate(0,0)" />
</svg>