<svg width="65" height="64" viewBox="0 0 65 64" fill="none" xmlns="http://www.w3.org/2000/svg">
<path d="M11.1284 25.0835V15.8835C11.1284 14.3686 12.3564 13.1406 13.8713 13.1406H58.2141C59.729 13.1406 60.957 14.3686 60.957 15.8835V48.112C60.957 49.6269 59.729 50.8549 58.2141 50.8549H13.8713C12.3564 50.8549 11.1284 49.6269 11.1284 48.1121V42.2263M11.1284 28.4549V31.7692M11.1284 35.3121V38.6263" stroke="#212426" stroke-width="1.82857" stroke-linecap="round" stroke-linejoin="round"/>
<path d="M11.8713 14.1133L29.9726 31.8276M59.9856 14.1133L41.8844 31.8276M29.9726 31.8276L32.0117 33.8231C34.1884 35.9533 37.6685 35.9533 39.8453 33.8231L41.8844 31.8276M29.9726 31.8276L11.9856 49.999M41.8844 31.8276L60.0428 49.8847" stroke="#212426" stroke-width="1.82857" stroke-linecap="round" stroke-linejoin="round"/>
<path d="M4.04272 25.0859H14.6142" stroke="#2BAF6A" stroke-width="1.82857" stroke-linecap="round" stroke-linejoin="round"/>
<path d="M4.04272 32H17.9856" stroke="#2BAF6A" stroke-width="1.82857" stroke-linecap="round" stroke-linejoin="round"/>
<path d="M4.04272 38.8555H14.557" stroke="#2BAF6A" stroke-width="1.82857" stroke-linecap="round" stroke-linejoin="round"/>
</svg>
