<svg viewBox="0 0 65 64" fill="none" xmlns="http://www.w3.org/2000/svg">
    <path
        d="M15.1285 32.915C15.1285 30.8952 16.7659 29.2578 18.7857 29.2578H46.2143C48.234 29.2578 49.8714 30.8952 49.8714 32.915V42.9721C49.8714 52.5661 42.0939 60.3435 32.5 60.3435V60.3435C22.906 60.3435 15.1285 52.5661 15.1285 42.9721V32.915Z"
        stroke="#212426" stroke-width="1.82857" stroke-linecap="round" stroke-linejoin="round" />
    <path
        d="M46.2143 29.2563V17.3705C46.2143 9.79634 40.0742 3.65625 32.5001 3.65625V3.65625C24.9259 3.65625 18.7858 9.79635 18.7858 17.3705V29.2563"
        stroke="#212426" stroke-width="1.82857" stroke-linecap="round" stroke-linejoin="round" />
    <path
        d="M40.7286 29.2559V26.5131M24.2715 29.2559V17.2559C24.2715 12.7114 27.9555 9.02734 32.5001 9.02734V9.02734C37.0446 9.02734 40.7286 12.7114 40.7286 17.2559V22.7416"
        stroke="#212426" stroke-width="1.82857" stroke-linecap="round" stroke-linejoin="round" />
    <path
        d="M27.9286 40.2277C27.9286 37.7029 29.9753 35.6562 32.5 35.6562C35.0247 35.6562 37.0714 37.7029 37.0714 40.2277C37.0714 42.7524 35.0247 44.7991 32.5 44.7991V49.3134"
        stroke="#2BAF6A" stroke-width="1.82857" stroke-linecap="round" stroke-linejoin="round" />
    <path d="M32.5 53.0273V53.0845" stroke="#2BAF6A" stroke-width="1.82857" stroke-linecap="round"
        stroke-linejoin="round" />
</svg>